<?xml version="1.0" standalone="no"?>
<!DOCTYPE svg PUBLIC "-//W3C//DTD SVG 20010904//EN"
 "http://www.w3.org/TR/2001/REC-SVG-20010904/DTD/svg10.dtd">
<svg version="1.0" xmlns="http://www.w3.org/2000/svg"
 width="1024.000000pt" height="1024.000000pt" viewBox="0 0 1024.000000 1024.000000"
 preserveAspectRatio="xMidYMid meet">

<g transform="translate(0.000000,1024.000000) scale(0.100000,-0.100000)"
fill="#000000" stroke="none">
<path d="M5205 8775 c-142 -26 -172 -34 -234 -61 -109 -47 -258 -132 -308
-175 -30 -26 -35 -27 -110 -22 -190 13 -565 -33 -760 -93 -315 -97 -628 -287
-804 -487 -108 -124 -201 -265 -254 -387 -35 -80 -36 -82 -110 -110 -196 -76
-398 -245 -530 -441 -147 -219 -237 -564 -213 -818 22 -240 135 -476 297 -617
140 -122 206 -162 381 -227 163 -60 342 -97 535 -109 l40 -3 3 -147 3 -146
-53 -6 c-29 -3 -92 -9 -140 -12 -94 -7 -93 -7 -131 -74 -51 -92 -81 -398 -57
-570 24 -168 32 -207 67 -330 62 -221 109 -337 177 -444 19 -29 37 -63 41 -77
4 -13 21 -42 37 -64 l30 -40 -6 45 c-4 24 -16 59 -28 78 -11 18 -18 35 -15 38
8 8 65 -83 92 -146 39 -92 78 -151 97 -146 11 2 20 -5 27 -23 5 -14 22 -57 36
-96 14 -38 46 -111 71 -161 24 -51 44 -96 44 -101 0 -6 12 -28 27 -49 14 -21
43 -73 64 -114 88 -174 275 -451 424 -625 60 -70 283 -293 352 -351 60 -51
250 -176 356 -233 81 -44 402 -161 443 -161 21 0 130 35 309 100 67 24 158 73
252 135 34 22 82 53 107 68 173 107 542 500 686 731 25 40 61 94 81 121 19 28
51 82 69 120 19 39 45 85 57 103 37 55 183 360 215 449 27 76 38 91 126 184
152 159 253 328 320 539 118 369 134 821 34 1020 -26 54 -29 55 -94 74 -66 19
-67 19 -117 -2 l-51 -21 -12 22 c-6 12 -19 28 -30 35 -11 8 -18 25 -18 46 0
19 -7 50 -15 69 -12 30 -15 90 -15 320 l0 283 76 18 c211 50 527 205 674 332
112 96 229 228 282 318 91 156 123 240 152 406 26 150 28 218 11 345 -23 170
-58 291 -115 398 -148 277 -340 465 -645 632 -179 98 -343 161 -510 196 -168
36 -481 75 -517 66 -22 -6 -82 37 -128 92 -68 82 -236 195 -364 246 -135 53
-227 68 -441 71 -135 2 -223 -2 -270 -11z m345 -300 c178 -26 250 -48 355
-108 39 -23 87 -56 108 -74 20 -18 41 -33 47 -33 5 0 46 -42 92 -93 60 -68 98
-124 140 -203 95 -183 131 -305 168 -564 28 -188 30 -200 38 -200 26 0 69 240
78 430 5 100 2 159 -10 230 -8 52 -12 97 -8 101 9 7 176 -8 267 -25 161 -31
433 -151 560 -248 93 -70 243 -219 277 -273 17 -27 38 -58 46 -67 18 -21 54
-107 85 -198 18 -55 21 -88 22 -220 0 -138 -3 -163 -24 -225 -35 -104 -72
-172 -163 -302 -21 -30 -167 -167 -255 -238 -74 -60 -173 -112 -403 -208 -144
-61 -132 -60 -152 -15 -9 21 -35 60 -58 86 -34 41 -40 55 -40 93 0 73 29 307
46 373 43 168 96 327 148 449 9 20 14 37 12 37 -8 0 -144 -146 -183 -195 -79
-101 -184 -298 -252 -470 l-32 -80 -201 98 -201 98 7 232 c7 248 -4 474 -27
572 -8 33 -23 96 -33 140 -21 95 -48 160 -97 237 -44 69 -62 82 -41 31 28 -65
47 -311 35 -438 -10 -96 -49 -287 -64 -312 -11 -18 -67 -289 -67 -325 0 -46
11 -45 -190 -13 -247 39 -289 45 -320 45 l-29 0 6 138 c8 191 -30 462 -89 627
-54 154 -173 352 -265 443 -53 51 -93 79 -93 66 0 -3 27 -62 60 -129 109 -224
120 -272 119 -533 0 -108 -4 -233 -9 -277 -4 -44 -14 -137 -21 -207 l-13 -126
-95 -7 c-85 -6 -146 -14 -420 -56 -35 -5 -74 -12 -86 -15 -20 -5 -23 1 -40 73
-56 242 -143 439 -253 578 -78 99 -106 124 -168 154 -37 18 -68 30 -70 28 -3
-2 4 -15 15 -28 10 -13 30 -46 45 -74 15 -27 40 -72 56 -100 40 -70 69 -166
79 -262 11 -104 -4 -460 -20 -479 -6 -8 -32 -20 -58 -28 -53 -16 -163 -67
-269 -125 -69 -38 -215 -141 -227 -161 -18 -30 -25 1 -25 114 0 87 -4 127 -12
134 -27 21 -287 149 -363 179 -214 82 -370 122 -440 113 l-40 -5 75 -30 c104
-42 248 -116 315 -161 31 -22 89 -59 128 -84 l72 -46 3 -402 c1 -221 -1 -402
-5 -402 -5 0 -24 4 -43 10 -19 5 -75 14 -123 19 -49 6 -103 15 -120 20 -18 5
-79 24 -137 42 -66 20 -135 50 -185 80 -83 50 -219 175 -231 212 -4 12 -17 38
-30 57 -89 136 -116 387 -62 589 11 42 23 90 28 108 13 55 107 231 152 285 86
104 200 202 323 280 63 40 283 124 355 136 172 29 324 24 434 -15 22 -7 41
-12 43 -10 6 7 -77 68 -128 93 -70 36 -177 71 -283 94 -49 11 -91 22 -93 24
-6 5 39 79 77 125 57 71 232 243 288 284 120 88 329 180 572 250 77 22 304 57
373 57 l58 0 -24 -32 c-54 -74 -131 -238 -178 -378 -60 -182 -63 -209 -15
-147 19 25 42 59 51 76 8 17 19 31 23 31 4 0 26 24 47 53 61 82 204 237 254
278 25 20 63 52 84 71 21 20 55 44 75 54 20 11 52 29 70 41 59 39 224 115 282
130 30 8 93 23 140 34 47 10 90 21 95 24 11 5 198 -2 255 -10z m-70 -2086
c167 -23 416 -75 475 -99 11 -5 70 -27 130 -50 61 -22 119 -46 130 -52 11 -6
58 -32 105 -56 47 -25 99 -54 115 -63 17 -10 46 -27 65 -38 41 -22 176 -126
238 -181 l42 -39 0 -310 c0 -219 -3 -311 -11 -311 -6 0 -23 8 -37 19 -82 57
-355 179 -538 239 -362 120 -676 167 -1114 166 -284 0 -394 -9 -625 -49 -44
-7 -100 -17 -125 -20 -25 -3 -65 -13 -90 -20 -25 -8 -97 -28 -160 -45 -106
-28 -236 -74 -385 -136 -33 -14 -112 -54 -175 -89 l-115 -64 -3 321 -2 322 32
34 c42 43 162 134 210 158 20 11 77 43 126 72 190 111 346 173 600 236 332 83
754 104 1112 55z m-261 -979 c26 -12 65 -20 100 -20 87 0 280 -19 346 -35 33
-8 80 -17 105 -20 73 -11 377 -104 405 -125 6 -4 42 -20 80 -35 155 -61 304
-152 408 -247 45 -41 59 -61 64 -90 5 -35 4 -38 -18 -38 -13 0 -78 -12 -144
-26 -144 -30 -308 -62 -390 -75 -33 -5 -103 -18 -155 -28 -86 -18 -174 -32
-375 -60 -187 -27 -350 -34 -645 -28 -168 3 -323 11 -346 16 -22 6 -92 15
-155 21 -133 12 -274 33 -414 61 -174 36 -288 59 -360 74 -38 8 -88 17 -110
20 -22 3 -71 13 -108 22 -65 15 -68 17 -62 41 12 48 57 91 192 185 79 56 307
171 388 197 22 7 45 16 51 21 14 11 261 81 384 108 52 12 151 26 220 32 69 5
173 14 232 19 60 5 116 14 125 19 31 18 134 12 182 -9z m-2044 -925 c33 -8 89
-14 125 -15 80 0 104 -15 118 -72 11 -42 49 -109 123 -220 88 -132 272 -248
459 -289 80 -18 117 -20 235 -16 163 6 246 25 353 82 98 52 176 118 225 191
64 94 153 200 189 225 18 13 40 32 48 42 14 17 18 17 75 -12 88 -44 104 -61
216 -227 49 -74 150 -164 234 -209 129 -70 235 -95 409 -95 167 0 240 17 393
90 165 80 294 221 344 375 12 39 27 75 33 82 11 12 160 55 254 74 61 12 65 9
107 -51 34 -49 45 -94 55 -235 13 -178 -8 -361 -60 -515 -52 -154 -104 -253
-164 -314 l-41 -41 -8 190 c-4 105 -10 197 -14 205 -3 9 -10 -3 -17 -30 -15
-56 -38 -110 -48 -110 -4 0 -5 20 -1 45 9 67 -4 54 -28 -27 -11 -40 -27 -86
-35 -103 -8 -16 -35 -84 -60 -150 -25 -65 -52 -128 -60 -139 -8 -11 -14 -26
-14 -33 0 -7 -11 -37 -25 -67 -14 -30 -25 -59 -25 -64 0 -5 -9 -20 -19 -34
-11 -13 -43 -71 -72 -129 -29 -57 -68 -126 -88 -153 -19 -27 -52 -76 -73 -109
-48 -73 -115 -155 -221 -272 -95 -105 -268 -275 -280 -275 -4 0 -26 -18 -50
-39 -99 -91 -270 -201 -398 -256 -245 -106 -288 -111 -439 -50 -129 52 -236
105 -328 162 -81 51 -297 230 -395 327 -113 112 -128 128 -227 247 -79 94
-160 202 -160 214 0 3 -15 26 -34 52 -71 101 -227 409 -274 543 -48 135 -81
212 -165 379 -41 84 -55 106 -51 79 3 -20 -2 -75 -11 -122 -17 -86 -16 -173 4
-258 11 -47 2 -48 -37 -3 -180 204 -270 527 -243 863 8 93 18 150 31 180 11
25 20 49 20 55 0 14 31 47 44 47 6 0 38 -7 71 -15z"/>
<path d="M3905 4950 c-63 -11 -126 -29 -170 -51 l-70 -33 110 -8 c94 -7 281
-36 445 -68 25 -5 72 -12 105 -15 33 -4 96 -13 140 -21 94 -16 426 -34 636
-34 345 0 661 33 1129 119 30 6 106 16 168 22 111 12 137 23 85 35 -16 3 -59
15 -96 26 -157 45 -353 60 -481 37 -34 -6 -95 -16 -136 -24 -41 -8 -95 -16
-120 -20 -25 -3 -85 -14 -135 -25 -130 -27 -286 -50 -379 -57 -79 -5 -142 2
-426 52 -47 8 -152 26 -235 40 -82 14 -175 30 -206 35 -83 15 -251 10 -364
-10z"/>
<path d="M5168 3703 l-58 -27 0 -50 c0 -28 -4 -56 -8 -63 -4 -7 -33 -24 -65
-38 -51 -24 -61 -25 -93 -15 -53 18 -117 87 -131 143 -7 26 -19 47 -26 47 -22
0 -69 -87 -81 -151 -6 -35 -4 -39 47 -86 56 -51 188 -121 244 -130 26 -4 41 1
70 23 21 15 44 36 50 45 22 30 116 86 172 103 30 9 83 16 117 16 l63 0 -9 29
c-12 43 -57 96 -116 136 -69 48 -105 51 -176 18z"/>
<path d="M5067 3595 c-24 -50 -20 -58 4 -12 11 22 19 41 17 43 -3 2 -12 -12
-21 -31z"/>
<path d="M3660 3472 c19 -15 43 -35 52 -44 10 -10 22 -18 27 -18 5 0 13 -6 19
-13 6 -7 46 -24 89 -37 75 -24 83 -29 228 -163 158 -145 202 -178 327 -245
112 -60 200 -83 348 -89 131 -6 181 3 312 53 44 17 48 17 65 1 10 -9 41 -27
68 -39 46 -21 64 -23 205 -22 148 0 159 2 240 31 90 33 172 74 255 129 59 38
211 183 245 234 33 48 68 80 88 80 39 0 203 66 239 97 l38 32 -30 1 c-17 0
-57 -7 -88 -15 -78 -20 -149 -19 -308 5 -119 18 -165 19 -221 3 -25 -6 -22
-25 5 -51 24 -22 172 -72 214 -72 13 0 23 -5 23 -11 0 -22 -74 -99 -96 -99
-12 0 -39 -12 -60 -27 -21 -15 -70 -39 -108 -55 -60 -24 -81 -28 -171 -28 -60
0 -133 7 -172 16 -122 29 -239 -1 -262 -67 -6 -18 -11 -42 -11 -53 0 -28 -18
-46 -47 -46 -16 0 -32 13 -51 42 -39 60 -91 108 -137 129 -56 26 -179 25 -270
-1 -104 -30 -216 -36 -295 -16 -87 22 -213 85 -286 142 -32 25 -71 52 -86 60
-16 8 -28 19 -28 24 0 6 7 6 18 -1 36 -22 156 25 255 99 53 40 51 43 -35 56
-34 5 -53 3 -70 -8 -25 -16 -140 -41 -230 -51 -75 -8 -195 10 -264 41 -70 31
-77 30 -34 -4z"/>
<path d="M5045 2557 c-46 -16 -87 -20 -175 -21 -63 -1 -131 2 -150 7 l-35 7
65 -66 c89 -90 246 -171 333 -173 76 -2 241 87 327 175 l55 56 -35 -7 c-19 -4
-44 -11 -54 -15 -12 -4 -53 6 -109 27 -102 38 -138 39 -222 10z"/>
</g>
</svg>
